# xmcd
# 
# Track frame offsets:
#     150
#     9839
#     22992
#     31958
#     42867
#     56936
#     73187
#     85226
#     96823
#     109377
#     130071
#     143961
#     153295
#     166723
# 
# Disc length: 2513
# 
# Revision: 0
# Processed by: cddbd v1.5.2PL0 Copyright (c) Steve Scherf et al.
# Submitted via: fre:ac v1.0.31
# 
DISCID=b009cf0e
DTITLE=Kanteeleen kyydissä -orkesteri - Kanteleen kyydissä
DYEAR=2009
DGENRE=Folk
TTITLE0=Kanteleeni käynnistän
TTITLE1=Matkaan
TTITLE2=Johtolankoja
TTITLE3=Kirppupolkka
TTITLE4=Karhun kantele
TTITLE5=Ihmetyksiä
TTITLE6=Villillä tuulella
TTITLE7=Sentti
TTITLE8=Ystäväni
TTITLE9=Katso koivu minua
TTITLE10=Eksynyt ja nälkäinen
TTITLE11=Kiire
TTITLE12=Kotia
TTITLE13=Kiitos
EXTD=
EXTT0=
EXTT1=
EXTT2=
EXTT3=
EXTT4=
EXTT5=
EXTT6=
EXTT7=
EXTT8=
EXTT9=
EXTT10=
EXTT11=
EXTT12=
EXTT13=
PLAYORDER=
